<?xml version="1.0" encoding="UTF-8" standalone="no"?>
<svg
   sodipodi:docname="nin jsa_white2.svg"
   inkscape:version="1.1 (c68e22c387, 2021-05-23)"
   id="svg8"
   version="1.1"
   viewBox="0 0 195.36482 191.56783"
   height="191.56783mm"
   width="195.36482mm"
   xmlns:inkscape="http://www.inkscape.org/namespaces/inkscape"
   xmlns:sodipodi="http://sodipodi.sourceforge.net/DTD/sodipodi-0.dtd"
   xmlns:xlink="http://www.w3.org/1999/xlink"
   xmlns="http://www.w3.org/2000/svg"
   xmlns:svg="http://www.w3.org/2000/svg"
   xmlns:rdf="http://www.w3.org/1999/02/22-rdf-syntax-ns#"
   xmlns:cc="http://creativecommons.org/ns#"
   xmlns:dc="http://purl.org/dc/elements/1.1/">
  <defs
     id="defs2">
    <linearGradient
       id="linearGradient1003"
       inkscape:collect="always">
      <stop
         id="stop995"
         offset="0"
         style="stop-color:#1736ef;stop-opacity:1" />
      <stop
         style="stop-color:#000000;stop-opacity:1"
         offset="0.45764211"
         id="stop1009" />
      <stop
         style="stop-color:#2f3768;stop-opacity:1"
         offset="0.89653701"
         id="stop997" />
      <stop
         id="stop1005"
         offset="0.9749521"
         style="stop-color:#1d2b81;stop-opacity:0.65490196;" />
      <stop
         style="stop-color:#18288a;stop-opacity:0.54901963"
         offset="1"
         id="stop999" />
      <stop
         id="stop1001"
         offset="1"
         style="stop-color:#14ea24;stop-opacity:1" />
    </linearGradient>
    <linearGradient
       inkscape:collect="always"
       id="linearGradient2817">
      <stop
         style="stop-color:#1736ef;stop-opacity:1"
         offset="0"
         id="stop2813" />
      <stop
         id="stop2827"
         offset="0.89653701"
         style="stop-color:#2f3768;stop-opacity:1" />
      <stop
         id="stop2821"
         offset="1"
         style="stop-color:#18288a;stop-opacity:0.54901963" />
      <stop
         style="stop-color:#201f5b;stop-opacity:0"
         offset="1"
         id="stop2815" />
    </linearGradient>
    <linearGradient
       inkscape:collect="always"
       id="linearGradient2807">
      <stop
         style="stop-color:#000000;stop-opacity:1;"
         offset="0"
         id="stop2803" />
      <stop
         style="stop-color:#000000;stop-opacity:0;"
         offset="1"
         id="stop2805" />
    </linearGradient>
    <radialGradient
       inkscape:collect="always"
       xlink:href="#linearGradient2817"
       id="radialGradient2819"
       cx="11.112578"
       cy="-428.25681"
       fx="11.112578"
       fy="-428.25681"
       r="100.00022"
       gradientTransform="matrix(1.0000673,0,0,1.0000673,-0.0055828,4.518962)"
       gradientUnits="userSpaceOnUse" />
    <linearGradient
       gradientTransform="translate(-55.853959,17.682755)"
       gradientUnits="userSpaceOnUse"
       y2="-270.24405"
       x2="521.83612"
       y1="-270.24405"
       x1="495.47787"
       id="linearGradient956"
       xlink:href="#linearGradient2807"
       inkscape:collect="always" />
    <radialGradient
       gradientUnits="userSpaceOnUse"
       gradientTransform="matrix(1.5032505,0.04870479,-0.06912665,2.1335611,-331.6258,259.40757)"
       r="39.252338"
       fy="-256.1445"
       fx="623.82733"
       cy="-256.1445"
       cx="623.82733"
       id="radialGradient993"
       xlink:href="#linearGradient1003"
       inkscape:collect="always" />
    <radialGradient
       r="100.00022"
       fy="-428.25681"
       fx="11.112578"
       cy="-428.25681"
       cx="11.112578"
       gradientTransform="matrix(1.0000673,0,0,1.0000673,-73.831772,659.10129)"
       gradientUnits="userSpaceOnUse"
       id="radialGradient1127"
       xlink:href="#linearGradient2817"
       inkscape:collect="always" />
    <linearGradient
       inkscape:collect="always"
       xlink:href="#linearGradient2807"
       id="linearGradient24703"
       x1="205.0575"
       y1="39.041145"
       x2="291.47968"
       y2="39.041145"
       gradientUnits="userSpaceOnUse" />
  </defs>
  <sodipodi:namedview
     inkscape:window-maximized="1"
     inkscape:window-y="0"
     inkscape:window-x="0"
     inkscape:window-height="1015"
     inkscape:window-width="1920"
     showgrid="false"
     inkscape:document-rotation="0"
     inkscape:current-layer="layer1"
     inkscape:document-units="mm"
     inkscape:cy="675.71427"
     inkscape:cx="-261.42856"
     inkscape:zoom="0.35000001"
     inkscape:pageshadow="2"
     inkscape:pageopacity="0.0"
     borderopacity="1.0"
     bordercolor="#666666"
     pagecolor="#ffffff"
     id="base"
     inkscape:pagecheckerboard="0" />
  <metadata
     id="metadata5">
    <rdf:RDF>
      <cc:Work
         rdf:about="">
        <dc:format>image/svg+xml</dc:format>
        <dc:type
           rdf:resource="http://purl.org/dc/dcmitype/StillImage" />
      </cc:Work>
    </rdf:RDF>
  </metadata>
  <g
     id="layer1"
     inkscape:groupmode="layer"
     inkscape:label="Capa 1"
     transform="translate(-175.11029,61.581942)">
    <ellipse
       transform="rotate(44.816851)"
       style="opacity:0.99;fill:url(#radialGradient1127);fill-opacity:1;fill-rule:nonzero;stroke:#4852a3;stroke-width:2.20415;stroke-linecap:round;stroke-linejoin:round;stroke-miterlimit:4;stroke-dasharray:none;stroke-opacity:1"
       id="path863"
       cx="-62.718407"
       cy="230.81564"
       rx="98.904877"
       ry="98.904869" />
    <path
       style="fill:#fffffd;fill-opacity:1;stroke:#000000;stroke-width:3.12999;stroke-linecap:butt;stroke-linejoin:miter;stroke-miterlimit:4;stroke-dasharray:none;stroke-opacity:1"
       d="m 185.91151,-34.39404 c 6.77741,-9.939571 35.57753,-27.748082 53.44196,-25.407115 44.23542,-2.535449 69.63492,35.975063 54.47317,69.6350871 l -6.78973,29.0779839 20.91377,20.077239 c -17.45391,2.006199 -85.93351,67.042885 -60.23173,69.433755 l -24.67825,-1.25483 5.25058,-50.583629 C 219.32404,89.076192 249.56593,49.959504 293.82664,9.8339321 234.37121,-19.867013 261.68499,-13.381922 244.31379,-22.301442 227.57105,-36.800816 196.42976,-39.090264 185.91151,-34.39404 Z"
       id="path985"
       sodipodi:nodetypes="cccccsccccc"
       inkscape:export-filename="/home/gilad/Downloads/011/path985.png"
       inkscape:export-xdpi="96"
       inkscape:export-ydpi="96" />
    <g
       id="g2793"
       style="mix-blend-mode:normal;fill:#fffffe;fill-opacity:1;stroke:#000000;stroke-width:1;stroke-miterlimit:4;stroke-dasharray:none;stroke-opacity:1"
       transform="matrix(1.5649959,0,0,1.5649959,-252.8181,480.84496)">
      <path
         sodipodi:nodetypes="ccscccccc"
         id="path849"
         transform="scale(0.26458333)"
         d="m 1202.9485,-1156.2667 c -12.9544,-0.2307 -71.0325,60.3162 -90.2322,71.2561 -31.2934,10.8829 -29.9582,6.7565 -48.7849,-15.1302 -8.3312,-9.6852 -6.3865,-9.2908 -20.6583,26.8858 l 19.3717,39.8442 c 26.8204,46.47032 15.0995,23.4507 39.3905,62.84743 29.3484,25.7916 20.7886,19.39538 29.3484,25.7916 36.8911,-38.54745 236.1095,-245.08963 181.7141,-192.47483 -37.8593,-12.2699 -93.5158,-16.1968 -110.1493,-19.0201 z"
         style="fill:#fffffe;fill-opacity:1;stroke:#000000;stroke-width:3.77953;stroke-linecap:butt;stroke-linejoin:miter;stroke-miterlimit:4;stroke-dasharray:none;stroke-opacity:1" />
      <path
         sodipodi:nodetypes="cccc"
         id="path853"
         d="m 286.10918,-295.31853 c 0.27289,-0.0121 11.70826,-5.29697 13.91821,-10.09127 0,2.89782 2.36591,4.02956 -0.18899,7.08706 -5.57842,3.2914 -13.80376,3.00168 -13.72922,3.00421"
         style="fill:#fffffe;fill-opacity:1;stroke:#000000;stroke-width:1;stroke-linecap:butt;stroke-linejoin:miter;stroke-miterlimit:4;stroke-dasharray:none;stroke-opacity:1" />
    </g>
    <path
       sodipodi:nodetypes="cccccccccc"
       id="path948"
       d="m 245.04736,58.535221 c -9.00309,10.291789 -11.0816,14.033397 -16.75608,18.049223 4.82086,-9.708483 11.68878,-14.433488 8.02746,-30.498703 l -13.60523,6.211109 c 8.73286,-6.157492 10.62946,-14.318695 12.1474,-20.715929 l -29.20558,18.471835 c 10.42333,-12.34245 23.56471,-37.166666 25.52003,-37.228827 19.19059,-24.989683 52.6252,0.153839 59.72334,-2.8807507 C 274.5142,28.104001 286.82139,18.154962 268.08,35.909903 Z"
       style="opacity:0.738977;mix-blend-mode:normal;fill:url(#linearGradient24703);fill-opacity:1.0;stroke:#000000;stroke-width:1.565;stroke-linecap:butt;stroke-linejoin:miter;stroke-miterlimit:4;stroke-dasharray:none;stroke-opacity:1" />
    <path
       style="opacity:1;fill:#fffffe;fill-opacity:0.97191638;fill-rule:nonzero;stroke:#000000;stroke-width:3.12999;stroke-linecap:butt;stroke-linejoin:miter;stroke-miterlimit:4;stroke-dasharray:none;stroke-opacity:1"
       d="m 179.63736,6.5970041 c -7.66103,-30.7303991 1.39997,-32.1972381 6.27415,-40.9910441 46.4289,-1.456855 55.97484,11.076368 71.52514,21.332066 l 3.13338,2.154201 30.32868,20.8509575 c -17.28548,1.4447885 -32.39806,-12.6461686 -60.64996,-6.2741312 2.21497,-2.5841213 -2.79673,-10.2488762 -10.03864,-9.2020351 6.34758,-6.2230812 11.4526,-6.2333632 16.73103,-7.1107002 -17.00988,-6.552996 -33.44207,29.04994 -57.30378,19.2406861 z"
       id="path966"
       sodipodi:nodetypes="ccccccccc"
       inkscape:export-filename="/home/gilad/Downloads/011/path985.png"
       inkscape:export-xdpi="96"
       inkscape:export-ydpi="96" />
    <path
       style="fill:#e3dedb;fill-opacity:1;stroke:#000005;stroke-width:3.12999;stroke-linecap:butt;stroke-linejoin:miter;stroke-miterlimit:4;stroke-dasharray:none;stroke-opacity:1"
       d="m 293.82664,9.8339321 c 2.68375,11.5055529 -1.73589,29.6071089 10.77217,31.9900969 12.82903,-7.039664 25.64234,-7.975094 38.44951,-6.50683 -11.71062,0.86333 -17.66265,3.081633 -15.97134,7.098367 14.60472,-2.773032 15.54519,7.067068 20.7036,13.013693 -5.48335,-21.943966 10.57565,-13.967965 17.74591,-18.337465 -4.29638,-11.16299 -12.90871,-16.571397 -31.35116,-8.872979 -15.08584,8.206964 -20.3772,4.442899 -28.98501,4.732251 l 13.01369,-6.506846 c -20.5594,1.923411 -17.98185,-10.035365 -24.37737,-16.6102879 5.03189,1.8729249 8.75132,8.3394249 16.68748,0.047419 L 308.73953,16.97975 C 312.22908,6.1234364 318.72605,5.793097 325.3024,5.7406384 L 314.0633,-0.17467061 C 331.38064,1.8819062 347.95377,14.357881 366.70958,-3.7238465 351.06163,-4.1779927 354.84673,-13.837257 353.10434,-20.87825 349.51645,-9.4137649 343.08247,-5.5388349 334.76687,-6.6815169 l 10.64758,5.91530919 C 334.25343,-3.3294989 322.93161,-5.8928057 314.0633,-8.4560969 c -5.59921,-1.354551 -11.52938,-0.557858 -20.23666,18.290029 z"
       id="path1030"
       sodipodi:nodetypes="cccccccccccccccccccc"
       inkscape:export-filename="/home/gilad/Downloads/011/path985.png"
       inkscape:export-xdpi="96"
       inkscape:export-ydpi="96" />
  </g>
</svg>
